<svg width="26" height="24" viewBox="0 0 26 24" fill="none" xmlns="http://www.w3.org/2000/svg">
<path d="M6.10095 18.2663L11.8385 18.2475L24.3614 6.3225C24.8528 5.85 25.1233 5.2225 25.1233 4.555C25.1233 3.8875 24.8528 3.26 24.3614 2.7875L22.2994 0.805C21.3165 -0.14 19.6016 -0.135 18.6265 0.80125L6.10095 12.7288V18.2663V18.2663ZM20.461 2.5725L22.5269 4.55125L20.4506 6.52875L18.3886 4.5475L20.461 2.5725ZM8.70123 13.7713L16.5411 6.305L18.6031 8.2875L10.7645 15.7513L8.70123 15.7575V13.7713Z" fill="white"/>
<path d="M3.50067 23.25H21.7026C23.1367 23.25 24.3029 22.1288 24.3029 20.75V9.915L21.7026 12.415V20.75H7.6065C7.5727 20.75 7.5376 20.7625 7.50379 20.7625C7.46089 20.7625 7.41798 20.7513 7.37378 20.75H3.50067V3.25H12.4027L15.003 0.75H3.50067C2.06661 0.75 0.900391 1.87125 0.900391 3.25V20.75C0.900391 22.1288 2.06661 23.25 3.50067 23.25Z" fill="white"/>
</svg>
